<svg width="25" height="9" viewBox="0 0 25 9" fill="none" xmlns="http://www.w3.org/2000/svg">
<path d="M5.70711 2.70711L6.41421 3.41421V3.41421L5.70711 2.70711ZM5.70711 1.29289L6.41421 0.585787V0.585786L5.70711 1.29289ZM4.91421 3.5L4.20711 2.79289C3.92111 3.07889 3.83555 3.50901 3.99033 3.88268C4.14512 4.25636 4.50975 4.5 4.91421 4.5V3.5ZM4.91421 5.5V4.5C4.50975 4.5 4.14511 4.74364 3.99033 5.11732C3.83555 5.49099 3.92111 5.92111 4.20711 6.20711L4.91421 5.5ZM5.70711 6.29289L5 7L5 7L5.70711 6.29289ZM5.70711 7.70711L5 7L5 7L5.70711 7.70711ZM4.29289 7.70711L5 7L4.29289 7.70711ZM1.79289 5.20711L1.08579 5.91421H1.08579L1.79289 5.20711ZM1.79289 3.79289L1.08579 3.08579L1.08579 3.08579L1.79289 3.79289ZM4.29289 1.29289L3.58579 0.585786L3.58579 0.585786L4.29289 1.29289ZM6.41421 3.41421C7.19526 2.63316 7.19526 1.36684 6.41421 0.585787L5 2V2L6.41421 3.41421ZM5.62132 4.20711L6.41421 3.41421L5 2L4.20711 2.79289L5.62132 4.20711ZM4.91421 4.5H23V2.5H4.91421V4.5ZM23 4.5H25C25 3.39543 24.1046 2.5 23 2.5V4.5ZM23 4.5V6.5C24.1046 6.5 25 5.60457 25 4.5H23ZM23 4.5H4.91421V6.5H23V4.5ZM6.41421 5.58579L5.62132 4.79289L4.20711 6.20711L5 7L6.41421 5.58579ZM6.41421 8.41421C7.19526 7.63317 7.19526 6.36683 6.41421 5.58579L5 7V7L6.41421 8.41421ZM3.58579 8.41421C4.36684 9.19526 5.63316 9.19526 6.41421 8.41421L5 7L3.58579 8.41421ZM1.08579 5.91421L3.58579 8.41421L5 7L2.5 4.5L1.08579 5.91421ZM1.08579 3.08579C0.304738 3.86684 0.304738 5.13316 1.08579 5.91421L2.5 4.5L1.08579 3.08579ZM3.58579 0.585786L1.08579 3.08579L2.5 4.5L5 2L3.58579 0.585786ZM6.41421 0.585786C5.63316 -0.195262 4.36684 -0.195262 3.58579 0.585786L5 2L6.41421 0.585786Z" fill="#313131"/>
</svg>
