<svg width="24" height="19" viewBox="0 0 24 19" fill="none" xmlns="http://www.w3.org/2000/svg">
<path d="M2.5 0.5C1.39543 0.5 0.5 1.39543 0.5 2.5H2.5V0.5ZM21.3762 0.5H2.5V2.5H21.3762V0.5ZM23.3762 2.5C23.3762 1.39543 22.4808 0.5 21.3762 0.5V2.5H23.3762ZM21.3762 4.5C22.4808 4.5 23.3762 3.60457 23.3762 2.5H21.3762V4.5ZM2.5 4.5H21.3762V2.5H2.5V4.5ZM0.5 2.5C0.5 3.60457 1.39543 4.5 2.5 4.5V2.5H0.5ZM2.9381 7.5C1.83353 7.5 0.938103 8.39543 0.938103 9.5H2.9381V7.5ZM12.3762 7.5H2.9381V9.5H12.3762V7.5ZM14.3762 9.5C14.3762 8.39543 13.4808 7.5 12.3762 7.5V9.5H14.3762ZM12.3762 11.5C13.4808 11.5 14.3762 10.6046 14.3762 9.5H12.3762V11.5ZM2.9381 11.5H12.3762V9.5H2.9381V11.5ZM0.938103 9.5C0.938103 10.6046 1.83353 11.5 2.9381 11.5V9.5H0.938103ZM2.9381 16.5V14.5C1.83353 14.5 0.938103 15.3954 0.938103 16.5H2.9381ZM2.9381 16.5H0.938103C0.938103 17.6046 1.83353 18.5 2.9381 18.5V16.5ZM21.3762 16.5H2.9381V18.5H21.3762V16.5ZM21.3762 16.5V18.5C22.4808 18.5 23.3762 17.6046 23.3762 16.5H21.3762ZM21.3762 16.5H23.3762C23.3762 15.3954 22.4808 14.5 21.3762 14.5V16.5ZM2.9381 16.5H21.3762V14.5H2.9381V16.5Z" fill="#313131"/>
</svg>
